<svg width="125" height="24" viewBox="0 0 125 24" fill="none" xmlns="http://www.w3.org/2000/svg">
<path d="M14.4787 4.67148V19.3548H11.0537V12.2826L8.7851 16.9525V19.3548H5.69364V16.9525L3.42508 12.2826V19.3548H0V4.67148H2.8913L7.22825 13.0684L11.5874 4.67148H14.4787Z" fill="#0D2764"/>
<path d="M26.6378 16.3239V19.3548H20.7663C19.1946 19.3548 18.0381 18.9881 17.2967 18.2547C16.5554 17.5063 16.1847 16.249 16.1847 14.4828V11.6764C16.1847 10.1048 16.5554 8.97471 17.2967 8.28619C18.0381 7.58271 19.1946 7.23097 20.7663 7.23097H22.2119C22.6716 7.23097 23.1534 7.28335 23.6576 7.38813C24.1765 7.47793 24.651 7.66503 25.081 7.94942C25.511 8.21884 25.8668 8.59303 26.1485 9.072C26.4303 9.55097 26.5711 10.1721 26.5711 10.9355V11.6764C26.5711 12.2751 26.4747 12.8065 26.282 13.2705C26.0892 13.7345 25.8298 14.1236 25.5036 14.4379C25.1774 14.7523 24.7919 14.9917 24.347 15.1564C23.9022 15.321 23.4203 15.4034 22.9014 15.4034H21.8338C21.3742 15.4034 20.9442 15.336 20.5439 15.2013C20.1584 15.0666 19.8173 14.8645 19.5208 14.5951C19.5801 15.2836 19.758 15.7476 20.0546 15.9871C20.3659 16.2116 20.8552 16.3239 21.5225 16.3239H26.6378ZM19.4986 12.2152C19.4986 12.6044 19.5949 12.9112 19.7877 13.1357C19.9804 13.3603 20.2621 13.4725 20.6328 13.4725H21.9006C22.2861 13.4725 22.6048 13.3677 22.8569 13.1582C23.1238 12.9486 23.2572 12.6343 23.2572 12.2152V11.609C23.2572 11.0403 23.1312 10.6735 22.8791 10.5089C22.6271 10.3443 22.2935 10.2619 21.8783 10.2619H20.9887C20.4697 10.2619 20.0916 10.4041 19.8544 10.6885C19.6172 10.9729 19.4986 11.377 19.4986 11.9009V12.2152Z" fill="#0D2764"/>
<path d="M39.1299 19.3548H35.816V11.0028C35.816 10.5987 35.6529 10.3966 35.3267 10.3966C35.1488 10.3966 34.9338 10.4865 34.6817 10.6661L31.6125 13.1133V19.3548H28.2986V7.23097H31.6125V9.65574L33.414 8.21884C33.9329 7.81471 34.437 7.52284 34.9263 7.34323C35.4305 7.14864 35.9124 7.05135 36.372 7.05135C37.1282 7.05135 37.7583 7.29084 38.2625 7.76981C38.7814 8.23381 39.0705 8.8849 39.1299 9.7231V19.3548Z" fill="#0D2764"/>
<path d="M48.4878 16.0095V19.3548H46.5751C45.7003 19.3548 44.9515 19.265 44.3288 19.0854C43.7209 18.8908 43.2242 18.6065 42.8387 18.2323C42.4532 17.8431 42.1714 17.3641 41.9935 16.7954C41.8304 16.2116 41.7489 15.5231 41.7489 14.7298V10.2619H40.4367V7.23097H41.7489V3.99793H44.7514V7.23097H47.6427V10.2619H44.7514V13.9665C44.7514 14.7298 44.8996 15.2612 45.1962 15.5605C45.5076 15.8599 46.1081 16.0095 46.9977 16.0095H48.4878Z" fill="#0D2764"/>
<path d="M56.0471 7.23097C56.8329 7.23097 57.5076 7.32077 58.071 7.50039C58.6492 7.68 59.1237 7.96439 59.4944 8.35355C59.8799 8.74271 60.1616 9.25161 60.3396 9.88026C60.5323 10.4939 60.6287 11.2423 60.6287 12.1254V14.4828C60.6287 16.249 60.258 17.5063 59.5166 18.2547C58.7753 18.9881 57.6188 19.3548 56.0471 19.3548H54.2456C52.6739 19.3548 51.5174 18.9881 50.776 18.2547C50.0347 17.5063 49.664 16.249 49.664 14.4828V12.1254C49.664 11.2423 49.7529 10.4939 49.9309 9.88026C50.1236 9.25161 50.4053 8.74271 50.776 8.35355C51.1615 7.96439 51.636 7.68 52.1994 7.50039C52.7777 7.32077 53.4597 7.23097 54.2456 7.23097H56.0471ZM57.3148 12.552C57.3148 12.103 57.2777 11.7288 57.2036 11.4294C57.1443 11.1301 57.0331 10.8981 56.87 10.7334C56.7069 10.5538 56.4993 10.4341 56.2472 10.3742C55.9952 10.2994 55.6764 10.2619 55.2909 10.2619H55.0018C54.6311 10.2619 54.3123 10.2994 54.0454 10.3742C53.7933 10.4341 53.5858 10.5538 53.4227 10.7334C53.2596 10.8981 53.141 11.1301 53.0668 11.4294C53.0075 11.7288 52.9779 12.103 52.9779 12.552V14.0338C52.9779 14.4828 53.0075 14.857 53.0668 15.1564C53.141 15.4557 53.2596 15.6952 53.4227 15.8748C53.5858 16.0395 53.7933 16.1592 54.0454 16.2341C54.3123 16.2939 54.6311 16.3239 55.0018 16.3239H55.2909C55.6764 16.3239 55.9952 16.2939 56.2472 16.2341C56.4993 16.1592 56.7069 16.0395 56.87 15.8748C57.0331 15.6952 57.1443 15.4557 57.2036 15.1564C57.2777 14.857 57.3148 14.4828 57.3148 14.0338V12.552Z" fill="#0D2764"/>
<path d="M72.4854 11.6988H69.394V11.0028C69.394 10.8083 69.3272 10.6511 69.1938 10.5314C69.0752 10.3966 68.9195 10.3293 68.7267 10.3293C68.4895 10.3293 68.2597 10.4415 68.0373 10.6661L65.613 12.8663V19.3548H62.2992V7.23097H65.613V9.27406L66.7696 8.21884C67.2292 7.81471 67.6963 7.52284 68.1707 7.34323C68.66 7.14864 69.1345 7.05135 69.5941 7.05135C69.9796 7.05135 70.3355 7.11123 70.6617 7.23097C71.0027 7.35071 71.2993 7.53032 71.5513 7.76981C71.8182 7.99432 72.0332 8.27122 72.1963 8.60052C72.3594 8.92981 72.4558 9.304 72.4854 9.7231V11.6988Z" fill="#0D2764"/>
<path d="M75.4455 5.72671C74.6894 5.72671 74.1778 5.56955 73.9109 5.25523C73.644 4.9409 73.5106 4.44697 73.5106 3.77342C73.5106 3.11484 73.6292 2.62839 73.8665 2.31406C74.1185 1.99974 74.6449 1.84258 75.4455 1.84258C75.8459 1.84258 76.1647 1.88 76.4019 1.95484C76.654 2.01471 76.8467 2.11948 76.9802 2.26916C77.1284 2.41884 77.2248 2.6209 77.2693 2.87535C77.3286 3.11484 77.3582 3.41419 77.3582 3.77342C77.3582 4.50684 77.2248 5.01574 76.9579 5.30013C76.691 5.58451 76.1869 5.72671 75.4455 5.72671ZM73.7775 19.3548V7.23097H77.0914V19.3548H73.7775Z" fill="#0D2764"/>
<path d="M83.7818 7.23097C85.3535 7.23097 86.51 7.60516 87.2514 8.35355C87.9928 9.08697 88.3634 10.3368 88.3634 12.103V19.3548H85.0496V18.0302C84.7678 18.5541 84.4046 18.9058 83.9598 19.0854C83.515 19.265 83.0479 19.3548 82.5586 19.3548H81.9136C80.8312 19.3548 80.0083 19.1079 79.4449 18.6139C78.8963 18.12 78.622 17.2818 78.622 16.0994V14.9094C78.622 14.3107 78.7109 13.7794 78.8889 13.3154C79.0816 12.8514 79.3411 12.4622 79.6673 12.1479C80.0083 11.8335 80.4012 11.5941 80.8461 11.4294C81.2909 11.2648 81.7728 11.1825 82.2917 11.1825H82.7143C83.1739 11.1825 83.5965 11.2498 83.982 11.3845C84.3823 11.5192 84.7308 11.7213 85.0273 11.9907C84.968 11.3172 84.7827 10.8606 84.4713 10.6212C84.1748 10.3817 83.6929 10.2619 83.0257 10.2619H79.8452V7.23097H83.7818ZM85.0496 14.3706C85.0496 13.9814 84.9532 13.6746 84.7604 13.4501C84.5677 13.2255 84.286 13.1133 83.9153 13.1133H83.2925C82.907 13.1133 82.5808 13.2181 82.3139 13.4276C82.0619 13.6372 81.9359 13.9515 81.9359 14.3706V14.9768C81.9359 15.5455 82.0619 15.9123 82.3139 16.0769C82.566 16.2415 82.8996 16.3239 83.3148 16.3239H83.7151C84.2044 16.3239 84.5454 16.2341 84.7382 16.0545C84.9458 15.8748 85.0496 15.5231 85.0496 14.9992V14.3706Z" fill="#0D2764"/>
<path d="M106.409 24H116.448C116.448 24 111.983 23.4006 110.77 22.2018C109.625 21.0466 109.02 19.1495 108.956 16.5104C108.826 17.3003 108.523 17.8641 108.047 18.2018C107.392 18.6667 106.446 18.8991 105.208 18.8991C103.971 18.8991 103.11 18.6422 102.625 18.1284C102.139 17.6147 101.897 16.6239 101.897 15.156V14.6055H96.2921V16.0367C96.2921 18.9235 96.8987 20.9786 98.1118 22.2018C99.3249 23.4006 101.217 24 103.789 24H106.409Z" fill="#0D2764"/>
<path d="M106.628 12.2202C107.38 12.2202 107.962 12.5138 108.375 13.1009C108.66 13.4841 108.852 13.961 108.951 14.5318V0H97.2019V5.13762H107.064L103.134 10.6789L105.645 12.367C105.936 12.2691 106.264 12.2202 106.628 12.2202Z" fill="#118BFF"/>
<path fill-rule="evenodd" clip-rule="evenodd" d="M125 24V18.8991H117.867C116.63 18.8991 115.768 18.6422 115.283 18.1284C114.991 17.8188 114.786 17.3358 114.67 16.6796V16.6795C114.593 16.2469 114.555 15.7391 114.555 15.156V13.8716V9.10092V5.13762H125V0H108.951V14.5318C109.003 14.8356 109.03 15.166 109.03 15.5229C109.03 15.8841 109.005 16.2133 108.956 16.5104C109.02 19.1495 109.625 21.0466 110.77 22.2018C111.983 23.4006 116.448 24 116.448 24H125Z" fill="#118BFF"/>
<path d="M120.176 13.8716V9.10092H115.739V13.8716H120.176Z" fill="#0D2764"/>
</svg>
